<?xml version="1.0"?>
<svg xmlns="http://www.w3.org/2000/svg" xmlns:xlink="http://www.w3.org/1999/xlink" version="1.1" width="36" height="36" id="Capa_1" x="0px" y="0px" viewBox="0 0 60.031 60.031" style="enable-background:new 0 0 60.031 60.031;" xml:space="preserve" class=""><g><g>
	<path d="M55.232,35.632l-3.327-3.79c-0.262-0.297-0.677-0.413-1.053-0.294c-0.378,0.119-0.649,0.45-0.693,0.845   c-0.078,0.71-0.179,1.394-0.292,2.038c-0.728-3.204-2.091-6.395-4.076-9.535c-0.028-0.044-0.06-0.086-0.094-0.126l-0.407-0.464   c-0.381-0.432-1.123-0.432-1.504,0l-3.249,3.701c-3.338,3.803-5.185,8.616-5.293,13.496c-0.454-1.034-0.89-2.203-1.211-3.437   c-0.101-0.387-0.421-0.676-0.816-0.736c-0.397-0.06-0.787,0.12-0.999,0.457c-3.381,5.398-2.808,12.511,1.393,17.297   c2.761,3.145,6.744,4.947,10.928,4.947c4.114,0,8.052-1.752,10.803-4.808C60.273,49.745,60.226,41.323,55.232,35.632z" data-original="#000000" class="active-path" data-old_color="#000000" fill="#FFFFFF"/>
	<path d="M30.522,36.725c0.635-1.008,1.794-1.548,2.986-1.374c0.229,0.035,0.449,0.095,0.657,0.178   c0.948-3.232,2.602-6.259,4.868-8.841l3.249-3.701c0.564-0.64,1.385-1.004,2.255-1.004s1.69,0.364,2.252,1l0.233,0.265V8.982   c0-0.553-0.447-1-1-1c-14.628,0-21.169-7.565-21.231-7.641c-0.381-0.455-1.156-0.455-1.537,0   c-0.063,0.077-6.537,7.641-21.231,7.641c-0.553,0-1,0.447-1,1v19.085c0,10.433,4.69,20.348,12.546,26.521   c3.167,2.489,6.589,4.29,10.17,5.353c0.093,0.027,0.188,0.041,0.284,0.041s0.191-0.014,0.284-0.041   c2.683-0.796,5.277-2.007,7.741-3.611C27.325,50.886,26.693,42.84,30.522,36.725z M3.023,34.982c-0.552,0-1-0.448-1-1   c0-0.552,0.448-1,1-1s1,0.448,1,1C4.023,34.534,3.575,34.982,3.023,34.982z M3.023,28.982c-0.552,0-1-0.448-1-1   c0-0.552,0.448-1,1-1s1,0.448,1,1C4.023,28.534,3.575,28.982,3.023,28.982z M3.023,22.982c-0.552,0-1-0.448-1-1   c0-0.552,0.448-1,1-1s1,0.448,1,1C4.023,22.534,3.575,22.982,3.023,22.982z M3.023,16.982c-0.552,0-1-0.448-1-1   c0-0.552,0.448-1,1-1s1,0.448,1,1C4.023,16.534,3.575,16.982,3.023,16.982z M3.023,10.982c-0.552,0-1-0.448-1-1   c0-0.552,0.448-1,1-1s1,0.448,1,1C4.023,10.534,3.575,10.982,3.023,10.982z M6.023,43.982c-0.552,0-1-0.448-1-1   c0-0.552,0.448-1,1-1s1,0.448,1,1C7.023,43.534,6.575,43.982,6.023,43.982z M6.023,37.982c-0.552,0-1-0.448-1-1   c0-0.552,0.448-1,1-1s1,0.448,1,1C7.023,37.534,6.575,37.982,6.023,37.982z M6.023,31.982c-0.552,0-1-0.448-1-1   c0-0.552,0.448-1,1-1s1,0.448,1,1C7.023,31.534,6.575,31.982,6.023,31.982z M6.023,25.982c-0.552,0-1-0.448-1-1   c0-0.552,0.448-1,1-1s1,0.448,1,1C7.023,25.534,6.575,25.982,6.023,25.982z M6.023,19.982c-0.552,0-1-0.448-1-1   c0-0.552,0.448-1,1-1s1,0.448,1,1C7.023,19.534,6.575,19.982,6.023,19.982z M6.023,13.982c-0.552,0-1-0.448-1-1   c0-0.552,0.448-1,1-1s1,0.448,1,1C7.023,13.534,6.575,13.982,6.023,13.982z M9.023,46.982c-0.552,0-1-0.448-1-1   c0-0.552,0.448-1,1-1s1,0.448,1,1C10.023,46.534,9.575,46.982,9.023,46.982z M9.023,40.982c-0.552,0-1-0.448-1-1   c0-0.552,0.448-1,1-1s1,0.448,1,1C10.023,40.534,9.575,40.982,9.023,40.982z M9.023,34.982c-0.552,0-1-0.448-1-1   c0-0.552,0.448-1,1-1s1,0.448,1,1C10.023,34.534,9.575,34.982,9.023,34.982z M9.023,28.982c-0.552,0-1-0.448-1-1   c0-0.552,0.448-1,1-1s1,0.448,1,1C10.023,28.534,9.575,28.982,9.023,28.982z M9.023,22.982c-0.552,0-1-0.448-1-1   c0-0.552,0.448-1,1-1s1,0.448,1,1C10.023,22.534,9.575,22.982,9.023,22.982z M9.023,16.982c-0.552,0-1-0.448-1-1   c0-0.552,0.448-1,1-1s1,0.448,1,1C10.023,16.534,9.575,16.982,9.023,16.982z M9.023,10.982c-0.552,0-1-0.448-1-1   c0-0.552,0.448-1,1-1s1,0.448,1,1C10.023,10.534,9.575,10.982,9.023,10.982z M12.023,49.982c-0.552,0-1-0.448-1-1   c0-0.552,0.448-1,1-1s1,0.448,1,1C13.023,49.534,12.575,49.982,12.023,49.982z M12.023,43.982c-0.552,0-1-0.448-1-1   c0-0.552,0.448-1,1-1s1,0.448,1,1C13.023,43.534,12.575,43.982,12.023,43.982z M12.023,37.982c-0.552,0-1-0.448-1-1   c0-0.552,0.448-1,1-1s1,0.448,1,1C13.023,37.534,12.575,37.982,12.023,37.982z M12.023,31.982c-0.552,0-1-0.448-1-1   c0-0.552,0.448-1,1-1s1,0.448,1,1C13.023,31.534,12.575,31.982,12.023,31.982z M12.023,25.982c-0.552,0-1-0.448-1-1   c0-0.552,0.448-1,1-1s1,0.448,1,1C13.023,25.534,12.575,25.982,12.023,25.982z M12.023,19.982c-0.552,0-1-0.448-1-1   c0-0.552,0.448-1,1-1s1,0.448,1,1C13.023,19.534,12.575,19.982,12.023,19.982z M12.023,13.982c-0.552,0-1-0.448-1-1   c0-0.552,0.448-1,1-1s1,0.448,1,1C13.023,13.534,12.575,13.982,12.023,13.982z M15.023,52.982c-0.552,0-1-0.448-1-1   c0-0.552,0.448-1,1-1s1,0.448,1,1C16.023,52.534,15.575,52.982,15.023,52.982z M15.023,46.982c-0.552,0-1-0.448-1-1   c0-0.552,0.448-1,1-1s1,0.448,1,1C16.023,46.534,15.575,46.982,15.023,46.982z M15.023,40.982c-0.552,0-1-0.448-1-1   c0-0.552,0.448-1,1-1s1,0.448,1,1C16.023,40.534,15.575,40.982,15.023,40.982z M15.023,34.982c-0.552,0-1-0.448-1-1   c0-0.552,0.448-1,1-1s1,0.448,1,1C16.023,34.534,15.575,34.982,15.023,34.982z M15.023,28.982c-0.552,0-1-0.448-1-1   c0-0.552,0.448-1,1-1s1,0.448,1,1C16.023,28.534,15.575,28.982,15.023,28.982z M15.023,22.982c-0.552,0-1-0.448-1-1   c0-0.552,0.448-1,1-1s1,0.448,1,1C16.023,22.534,15.575,22.982,15.023,22.982z M15.023,16.982c-0.552,0-1-0.448-1-1   c0-0.552,0.448-1,1-1s1,0.448,1,1C16.023,16.534,15.575,16.982,15.023,16.982z M15.023,10.982c-0.552,0-1-0.448-1-1   c0-0.552,0.448-1,1-1s1,0.448,1,1C16.023,10.534,15.575,10.982,15.023,10.982z M18.023,55.982c-0.552,0-1-0.448-1-1   c0-0.552,0.448-1,1-1s1,0.448,1,1C19.023,55.534,18.575,55.982,18.023,55.982z M18.023,49.982c-0.552,0-1-0.448-1-1   c0-0.552,0.448-1,1-1s1,0.448,1,1C19.023,49.534,18.575,49.982,18.023,49.982z M18.023,43.982c-0.552,0-1-0.448-1-1   c0-0.552,0.448-1,1-1s1,0.448,1,1C19.023,43.534,18.575,43.982,18.023,43.982z M18.023,37.982c-0.552,0-1-0.448-1-1   c0-0.552,0.448-1,1-1s1,0.448,1,1C19.023,37.534,18.575,37.982,18.023,37.982z M18.023,31.982c-0.552,0-1-0.448-1-1   c0-0.552,0.448-1,1-1s1,0.448,1,1C19.023,31.534,18.575,31.982,18.023,31.982z M18.023,25.982c-0.552,0-1-0.448-1-1   c0-0.552,0.448-1,1-1s1,0.448,1,1C19.023,25.534,18.575,25.982,18.023,25.982z M18.023,19.982c-0.552,0-1-0.448-1-1   c0-0.552,0.448-1,1-1s1,0.448,1,1C19.023,19.534,18.575,19.982,18.023,19.982z M18.023,13.982c-0.552,0-1-0.448-1-1   c0-0.552,0.448-1,1-1s1,0.448,1,1C19.023,13.534,18.575,13.982,18.023,13.982z M18.023,7.982c-0.552,0-1-0.448-1-1   c0-0.552,0.448-1,1-1s1,0.448,1,1C19.023,7.534,18.575,7.982,18.023,7.982z M21.023,52.982c-0.552,0-1-0.448-1-1   c0-0.552,0.448-1,1-1s1,0.448,1,1C22.023,52.534,21.575,52.982,21.023,52.982z M21.023,46.982c-0.552,0-1-0.448-1-1   c0-0.552,0.448-1,1-1s1,0.448,1,1C22.023,46.534,21.575,46.982,21.023,46.982z M21.023,40.982c-0.552,0-1-0.448-1-1   c0-0.552,0.448-1,1-1s1,0.448,1,1C22.023,40.534,21.575,40.982,21.023,40.982z M21.023,34.982c-0.552,0-1-0.448-1-1   c0-0.552,0.448-1,1-1s1,0.448,1,1C22.023,34.534,21.575,34.982,21.023,34.982z M21.023,28.982c-0.552,0-1-0.448-1-1   c0-0.552,0.448-1,1-1s1,0.448,1,1C22.023,28.534,21.575,28.982,21.023,28.982z M21.023,22.982c-0.552,0-1-0.448-1-1   c0-0.552,0.448-1,1-1s1,0.448,1,1C22.023,22.534,21.575,22.982,21.023,22.982z M21.023,16.982c-0.552,0-1-0.448-1-1   c0-0.552,0.448-1,1-1s1,0.448,1,1C22.023,16.534,21.575,16.982,21.023,16.982z M21.023,10.982c-0.552,0-1-0.448-1-1   c0-0.552,0.448-1,1-1s1,0.448,1,1C22.023,10.534,21.575,10.982,21.023,10.982z M21.023,4.982c-0.552,0-1-0.448-1-1   c0-0.552,0.448-1,1-1s1,0.448,1,1C22.023,4.534,21.575,4.982,21.023,4.982z M24.023,55.982c-0.552,0-1-0.448-1-1   c0-0.552,0.448-1,1-1s1,0.448,1,1C25.023,55.534,24.575,55.982,24.023,55.982z M24.023,49.982c-0.552,0-1-0.448-1-1   c0-0.552,0.448-1,1-1s1,0.448,1,1C25.023,49.534,24.575,49.982,24.023,49.982z M24.023,43.982c-0.552,0-1-0.448-1-1   c0-0.552,0.448-1,1-1s1,0.448,1,1C25.023,43.534,24.575,43.982,24.023,43.982z M24.023,37.982c-0.552,0-1-0.448-1-1   c0-0.552,0.448-1,1-1s1,0.448,1,1C25.023,37.534,24.575,37.982,24.023,37.982z M24.023,31.982c-0.552,0-1-0.448-1-1   c0-0.552,0.448-1,1-1s1,0.448,1,1C25.023,31.534,24.575,31.982,24.023,31.982z M24.023,25.982c-0.552,0-1-0.448-1-1   c0-0.552,0.448-1,1-1s1,0.448,1,1C25.023,25.534,24.575,25.982,24.023,25.982z M24.023,19.982c-0.552,0-1-0.448-1-1   c0-0.552,0.448-1,1-1s1,0.448,1,1C25.023,19.534,24.575,19.982,24.023,19.982z M24.023,13.982c-0.552,0-1-0.448-1-1   c0-0.552,0.448-1,1-1s1,0.448,1,1C25.023,13.534,24.575,13.982,24.023,13.982z M24.023,7.982c-0.552,0-1-0.448-1-1   c0-0.552,0.448-1,1-1s1,0.448,1,1C25.023,7.534,24.575,7.982,24.023,7.982z" data-original="#000000" class="active-path" data-old_color="#000000" fill="#FFFFFF"/>
</g></g> </svg>
